<?xml version="1.0" encoding="utf-8"?>
<!-- Generator: Adobe Illustrator 25.4.1, SVG Export Plug-In . SVG Version: 6.00 Build 0)  -->
<svg version="1.1" id="Layer_1" xmlns="http://www.w3.org/2000/svg" xmlns:xlink="http://www.w3.org/1999/xlink" x="0px" y="0px"
	 width="820px" height="630.404px" viewBox="0 0 820 630.404" style="enable-background:new 0 0 820 630.404;" xml:space="preserve"
	>
<style type="text/css">
	.st0{fill:#F5F5F5;}
	.st1{opacity:0.8;fill:#FFA400;enable-background:new    ;}
	.st2{opacity:0.8;fill:#B800E3;enable-background:new    ;}
	.st3{opacity:0.7;fill:url(#SVGID_1_);enable-background:new    ;}
	.st4{opacity:0.7;fill:url(#SVGID_00000123401612828618004630000015623953116949394870_);enable-background:new    ;}
	.st5{opacity:0.7;fill:url(#SVGID_00000012452599958977594680000005241993566697618614_);enable-background:new    ;}
	.st6{opacity:0.7;fill:url(#SVGID_00000098205099948495493620000002315481713157832083_);enable-background:new    ;}
	.st7{opacity:0.7;fill:url(#SVGID_00000082363085920692312000000004919195769217020848_);enable-background:new    ;}
	.st8{opacity:0.7;fill:url(#SVGID_00000140705344120270813750000002427179023881565327_);enable-background:new    ;}
	.st9{opacity:0.7;fill:url(#SVGID_00000130635124504724538120000016777317406699915425_);enable-background:new    ;}
	.st10{opacity:0.8;fill:#318DDE;enable-background:new    ;}
	.st11{opacity:0.6;fill:#333333;enable-background:new    ;}
	.st12{fill:none;}
	.st13{fill:#333333;}
	.st14{opacity:0.7;}
	.st15{fill:url(#SVGID_00000125567466023838045680000006852179176310297773_);}
	.st16{fill:#231F20;}
	.st17{opacity:0.8;}
	.st18{fill:#B800E3;}
	.st19{fill:#FFA400;}
	.st20{fill:#318DDE;}
</style>
<g id="GUIDE">
	<rect x="79.23" y="122.658" class="st0" width="675.912" height="387.842"/>
</g>
<g id="bubble_chart">
	<circle class="st1" cx="319.619" cy="320.233" r="31.677"/>
	<circle class="st1" cx="405.571" cy="265.653" r="31.677"/>
	<circle class="st2" cx="297.903" cy="432.995" r="38.503"/>
	<circle class="st2" cx="142.361" cy="490.551" r="45.765"/>
	
		<linearGradient id="SVGID_1_" gradientUnits="userSpaceOnUse" x1="79.7941" y1="300.6554" x2="108.1899" y2="310.9906" gradientTransform="matrix(1 0 0 -1 0 630)">
		<stop  offset="0" style="stop-color:#00B4E5"/>
		<stop  offset="1" style="stop-color:#1CD0BB"/>
	</linearGradient>
	<circle class="st3" cx="93.992" cy="324.177" r="15.105"/>
	
		<linearGradient id="SVGID_00000101802317690166477920000016640353459136400831_" gradientUnits="userSpaceOnUse" x1="183.4945" y1="310.4585" x2="233.5675" y2="328.6835" gradientTransform="matrix(1 0 0 -1 0 630)">
		<stop  offset="0" style="stop-color:#00B4E5"/>
		<stop  offset="1" style="stop-color:#1CD0BB"/>
	</linearGradient>
	
		<circle style="opacity:0.7;fill:url(#SVGID_00000101802317690166477920000016640353459136400831_);enable-background:new    ;" cx="208.531" cy="310.429" r="26.636"/>
	
		<linearGradient id="SVGID_00000110433152420148066360000011691780785082252984_" gradientUnits="userSpaceOnUse" x1="143.1095" y1="332.6054" x2="193.1825" y2="350.8305" gradientTransform="matrix(1 0 0 -1 0 630)">
		<stop  offset="0" style="stop-color:#00B4E5"/>
		<stop  offset="1" style="stop-color:#1CD0BB"/>
	</linearGradient>
	
		<circle style="opacity:0.7;fill:url(#SVGID_00000110433152420148066360000011691780785082252984_);enable-background:new    ;" cx="168.146" cy="288.282" r="26.636"/>
	
		<linearGradient id="SVGID_00000119808386470485834310000016364962284051920516_" gradientUnits="userSpaceOnUse" x1="127.8698" y1="390.3147" x2="218.3022" y2="423.2293" gradientTransform="matrix(1 0 0 -1 0 630)">
		<stop  offset="0" style="stop-color:#00B4E5"/>
		<stop  offset="1" style="stop-color:#1CD0BB"/>
	</linearGradient>
	
		<circle style="opacity:0.7;fill:url(#SVGID_00000119808386470485834310000016364962284051920516_);enable-background:new    ;" cx="173.086" cy="223.228" r="48.105"/>
	
		<linearGradient id="SVGID_00000178884682740703029060000008733608638063890608_" gradientUnits="userSpaceOnUse" x1="204.8157" y1="426.3089" x2="334.5963" y2="473.5451" gradientTransform="matrix(1 0 0 -1 0 630)">
		<stop  offset="0" style="stop-color:#00B4E5"/>
		<stop  offset="1" style="stop-color:#1CD0BB"/>
	</linearGradient>
	
		<circle style="opacity:0.7;fill:url(#SVGID_00000178884682740703029060000008733608638063890608_);enable-background:new    ;" cx="269.706" cy="180.073" r="69.036"/>
	
		<linearGradient id="SVGID_00000098917829717867554500000007753516372544593584_" gradientUnits="userSpaceOnUse" x1="99.4227" y1="452.5966" x2="173.7933" y2="479.6654" gradientTransform="matrix(1 0 0 -1 0 630)">
		<stop  offset="0" style="stop-color:#00B4E5"/>
		<stop  offset="1" style="stop-color:#1CD0BB"/>
	</linearGradient>
	
		<circle style="opacity:0.7;fill:url(#SVGID_00000098917829717867554500000007753516372544593584_);enable-background:new    ;" cx="136.608" cy="163.869" r="39.561"/>
	
		<linearGradient id="SVGID_00000157988863946239832480000012856559343014612120_" gradientUnits="userSpaceOnUse" x1="64.1817" y1="368.7926" x2="138.5523" y2="395.8614" gradientTransform="matrix(1 0 0 -1 0 630)">
		<stop  offset="0" style="stop-color:#00B4E5"/>
		<stop  offset="1" style="stop-color:#1CD0BB"/>
	</linearGradient>
	
		<circle style="opacity:0.7;fill:url(#SVGID_00000157988863946239832480000012856559343014612120_);enable-background:new    ;" cx="101.367" cy="247.673" r="39.561"/>
	<circle class="st2" cx="236.972" cy="417.198" r="38.555"/>
	<circle class="st2" cx="332.906" cy="385.669" r="38.555"/>
	<circle class="st2" cx="389.892" cy="398.761" r="38.555"/>
	<circle class="st10" cx="526.201" cy="275.377" r="38.555"/>
	<circle class="st10" cx="504.023" cy="327.797" r="38.555"/>
	<circle class="st10" cx="487.979" cy="422.321" r="74.634"/>
	<circle class="st10" cx="591.959" cy="243.506" r="50.197"/>
	<circle class="st1" cx="271.353" cy="332.535" r="44.301"/>
	<circle class="st10" cx="615.577" cy="149.901" r="21.08"/>
	<circle class="st10" cx="704.288" cy="132.764" r="21.08"/>
	<circle class="st10" cx="654.529" cy="153.288" r="13.661"/>
	<circle class="st10" cx="636.725" cy="165.881" r="13.661"/>
	<circle class="st10" cx="587.22" cy="155.893" r="13.661"/>
	<circle class="st10" cx="708.965" cy="200.668" r="13.661"/>
	<circle class="st10" cx="573.814" cy="186.354" r="26.743"/>
	
		<ellipse transform="matrix(0.3827 -0.9239 0.9239 0.3827 142.4767 624.5154)" class="st10" cx="538.565" cy="205.642" rx="26.743" ry="26.743"/>
	<circle class="st1" cx="353.777" cy="333.762" r="26.743"/>
	<circle class="st1" cx="362.849" cy="271.261" r="26.743"/>
	<circle class="st1" cx="331.983" cy="283.385" r="12.882"/>
	<circle class="st1" cx="441.056" cy="228.184" r="12.882"/>
	<circle class="st2" cx="221.01" cy="468.331" r="26.743"/>
	<circle class="st2" cx="187.743" cy="450.186" r="26.743"/>
	<path class="st11" d="M754.548,318.177H79.236c-0.276,0-0.5-0.224-0.5-0.5s0.224-0.5,0.5-0.5h675.312c0.276,0,0.5,0.224,0.5,0.5
		S754.824,318.177,754.548,318.177z"/>
</g>
<g>
	<path class="st12" d="M753.181,512.361H80.374c-1.379,0-2.507-1.128-2.507-2.507V123.836c0-1.379,1.128-2.507,2.507-2.507H753.18
		c1.379,0,2.507,1.128,2.507,2.507v386.018C755.688,511.233,754.56,512.361,753.181,512.361z"/>
</g>
<g>
	<g>
		<path class="st13" d="M671.803,376.836v-0.02c0-1.959,1.499-3.618,3.608-3.618c1.219,0,1.969,0.34,2.688,0.95l-0.78,0.929
			c-0.539-0.459-1.069-0.75-1.958-0.75c-1.29,0-2.27,1.129-2.27,2.469v0.02c0,1.439,0.95,2.499,2.379,2.499
			c0.66,0,1.26-0.21,1.689-0.53v-1.309h-1.789v-1.069h2.979v2.938c-0.69,0.589-1.68,1.089-2.919,1.089
			C673.242,380.434,671.803,378.875,671.803,376.836z"/>
		<path class="st13" d="M680.452,373.318h3.118c0.88,0,1.569,0.26,2.02,0.7c0.369,0.379,0.579,0.899,0.579,1.509v0.02
			c0,1.149-0.689,1.839-1.659,2.119l1.89,2.648h-1.459l-1.72-2.438h-1.539v2.438h-1.229v-6.996H680.452z M683.48,376.786
			c0.88,0,1.439-0.46,1.439-1.169v-0.02c0-0.75-0.54-1.16-1.449-1.16h-1.789v2.349H683.48z"/>
		<path class="st13" d="M688.183,373.318h5.187v1.099h-3.957v1.819h3.508v1.099h-3.508v1.879h4.008v1.1h-5.237v-6.996H688.183z"/>
		<path class="st13" d="M695.383,373.318h5.187v1.099h-3.957v1.819h3.508v1.099h-3.508v1.879h4.008v1.1h-5.237v-6.996H695.383z"/>
		<path class="st13" d="M702.582,373.318h1.14l3.748,4.837v-4.837h1.209v6.996h-1.029l-3.857-4.977v4.977h-1.21L702.582,373.318
			L702.582,373.318z"/>
	</g>
</g>
<g>
	<g>
		<path class="st13" d="M672.112,400.887h2.759c1.639,0,2.658,0.929,2.658,2.339v0.02c0,1.569-1.259,2.389-2.798,2.389h-1.39v2.249
			h-1.229V400.887z M674.771,404.524c0.929,0,1.509-0.52,1.509-1.249v-0.021c0-0.819-0.59-1.249-1.509-1.249h-1.43v2.519
			L674.771,404.524L674.771,404.524z"/>
		<path class="st13" d="M679.183,404.914v-4.027h1.229v3.978c0,1.299,0.67,1.989,1.77,1.989c1.089,0,1.759-0.65,1.759-1.939v-4.027
			h1.229v3.968c0,2.089-1.18,3.138-3.009,3.138C680.342,407.992,679.183,406.943,679.183,404.914z"/>
		<path class="st13" d="M687.362,400.887h3.118c0.88,0,1.569,0.26,2.02,0.699c0.369,0.38,0.579,0.899,0.579,1.509v0.021
			c0,1.149-0.689,1.839-1.659,2.119l1.89,2.648h-1.459l-1.72-2.438h-1.539v2.438h-1.229v-6.996H687.362z M690.391,404.354
			c0.88,0,1.439-0.46,1.439-1.169v-0.021c0-0.749-0.54-1.159-1.449-1.159h-1.789v2.349H690.391z"/>
		<path class="st13" d="M695.093,400.887h2.759c1.639,0,2.658,0.929,2.658,2.339v0.02c0,1.569-1.26,2.389-2.799,2.389h-1.389v2.249
			h-1.229V400.887z M697.751,404.524c0.93,0,1.51-0.52,1.51-1.249v-0.021c0-0.819-0.59-1.249-1.51-1.249h-1.429v2.519
			L697.751,404.524L697.751,404.524z"/>
		<path class="st13" d="M702.272,400.887h1.229v5.877h3.678v1.119h-4.907V400.887z"/>
		<path class="st13" d="M708.962,400.887h5.188v1.099h-3.958v1.819h3.508v1.1h-3.508v1.879h4.008v1.1h-5.237L708.962,400.887
			L708.962,400.887z"/>
	</g>
</g>
<g>
	<g>
		<path class="st13" d="M671.803,431.974v-0.021c0-1.969,1.52-3.617,3.668-3.617s3.648,1.629,3.648,3.598v0.02
			c0,1.969-1.52,3.619-3.668,3.619C673.302,435.572,671.803,433.942,671.803,431.974z M677.829,431.974v-0.021
			c0-1.359-0.989-2.488-2.378-2.488c-1.39,0-2.359,1.109-2.359,2.469v0.02c0,1.359,0.99,2.479,2.379,2.479
			C676.86,434.432,677.829,433.333,677.829,431.974z"/>
		<path class="st13" d="M681.112,428.455h3.118c0.88,0,1.569,0.26,2.02,0.7c0.369,0.38,0.579,0.899,0.579,1.509v0.02
			c0,1.15-0.689,1.84-1.659,2.119l1.89,2.648h-1.459l-1.72-2.438h-1.539v2.438h-1.229v-6.996H681.112z M684.141,431.924
			c0.88,0,1.439-0.46,1.439-1.17v-0.02c0-0.75-0.54-1.16-1.449-1.16h-1.789v2.35H684.141z"/>
		<path class="st13" d="M691.321,428.406h1.14l3.078,7.045h-1.3l-0.709-1.688h-3.309l-0.72,1.688h-1.259L691.321,428.406z
			 M693.08,432.674l-1.209-2.799l-1.199,2.799H693.08z"/>
		<path class="st13" d="M697.242,428.455h1.14l3.748,4.838v-4.838h1.209v6.996h-1.029l-3.857-4.977v4.977h-1.21L697.242,428.455
			L697.242,428.455z"/>
		<path class="st13" d="M705.333,431.974v-0.021c0-1.959,1.499-3.617,3.607-3.617c1.22,0,1.969,0.34,2.688,0.949l-0.779,0.93
			c-0.54-0.46-1.069-0.75-1.959-0.75c-1.289,0-2.269,1.129-2.269,2.469v0.02c0,1.439,0.949,2.499,2.379,2.499
			c0.659,0,1.259-0.21,1.688-0.53v-1.309H708.9v-1.069h2.979v2.938c-0.689,0.59-1.679,1.09-2.918,1.09
			C706.771,435.572,705.333,434.012,705.333,431.974z"/>
		<path class="st13" d="M713.982,428.455h5.187v1.1h-3.957v1.819h3.508v1.099h-3.508v1.879h4.008v1.1h-5.237v-6.997H713.982z"/>
	</g>
</g>
<g>
	<g>
		<path class="st13" d="M672.112,456.024h3.139c0.8,0,1.429,0.22,1.829,0.62c0.31,0.31,0.47,0.689,0.47,1.159v0.02
			c0,0.84-0.479,1.29-1,1.56c0.82,0.279,1.39,0.75,1.39,1.699v0.02c0,1.25-1.029,1.919-2.589,1.919h-3.238L672.112,456.024
			L672.112,456.024z M676.32,458.004c0-0.55-0.439-0.89-1.229-0.89h-1.769v1.858h1.679c0.79,0,1.319-0.31,1.319-0.949V458.004z
			 M675.271,460.013h-1.948v1.919h2.039c0.839,0,1.349-0.33,1.349-0.96v-0.02C676.71,460.362,676.24,460.013,675.271,460.013z"/>
		<path class="st13" d="M679.832,456.024h1.229v5.877h3.678v1.119h-4.907V456.024z"/>
		<path class="st13" d="M686.213,460.053v-4.028h1.229v3.978c0,1.3,0.669,1.989,1.769,1.989c1.09,0,1.759-0.649,1.759-1.938v-4.028
			h1.229v3.968c0,2.089-1.18,3.139-3.008,3.139C687.372,463.131,686.213,462.081,686.213,460.053z"/>
		<path class="st13" d="M694.393,456.024h5.187v1.1h-3.957v1.819h3.508v1.099h-3.508v1.879h4.008v1.1h-5.237v-6.997H694.393z"/>
	</g>
</g>
<g class="st14">
	
		<linearGradient id="SVGID_00000055676220321542736930000017665178845266404795_" gradientUnits="userSpaceOnUse" x1="642.168" y1="252.343" x2="663.642" y2="252.343" gradientTransform="matrix(1 0 0 -1 0 630)">
		<stop  offset="0" style="stop-color:#00B4E5"/>
		<stop  offset="1" style="stop-color:#1CD0BB"/>
	</linearGradient>
	<circle style="fill:url(#SVGID_00000055676220321542736930000017665178845266404795_);" cx="652.905" cy="377.657" r="10.737"/>
	<path class="st16" d="M652.904,388.894c-6.196,0-11.237-5.041-11.237-11.237s5.041-11.237,11.237-11.237
		s11.237,5.041,11.237,11.237S659.101,388.894,652.904,388.894z M652.904,367.419c-5.645,0-10.237,4.592-10.237,10.237
		s4.593,10.237,10.237,10.237s10.237-4.592,10.237-10.237S658.549,367.419,652.904,367.419z"/>
</g>
<g class="st17">
	<circle class="st18" cx="652.905" cy="405.226" r="10.737"/>
	<path class="st16" d="M652.904,416.463c-6.196,0-11.237-5.041-11.237-11.237s5.041-11.237,11.237-11.237
		s11.237,5.041,11.237,11.237S659.101,416.463,652.904,416.463z M652.904,394.988c-5.645,0-10.237,4.592-10.237,10.237
		s4.593,10.237,10.237,10.237s10.237-4.593,10.237-10.237C663.142,399.581,658.549,394.988,652.904,394.988z"/>
</g>
<g class="st17">
	<circle class="st19" cx="652.905" cy="432.794" r="10.737"/>
	<path class="st16" d="M652.904,444.031c-6.196,0-11.237-5.041-11.237-11.237c0-6.195,5.041-11.236,11.237-11.236
		s11.237,5.041,11.237,11.236C664.142,438.99,659.101,444.031,652.904,444.031z M652.904,422.558
		c-5.645,0-10.237,4.592-10.237,10.236s4.593,10.237,10.237,10.237s10.237-4.593,10.237-10.237S658.549,422.558,652.904,422.558z"/>
</g>
<g class="st17">
	<circle class="st20" cx="652.905" cy="460.363" r="10.737"/>
	<path class="st16" d="M652.904,471.601c-6.196,0-11.237-5.041-11.237-11.237s5.041-11.237,11.237-11.237
		s11.237,5.041,11.237,11.237S659.101,471.601,652.904,471.601z M652.904,450.126c-5.645,0-10.237,4.593-10.237,10.237
		s4.593,10.237,10.237,10.237s10.237-4.593,10.237-10.237S658.549,450.126,652.904,450.126z"/>
</g>
</svg>
